<svg width="332" height="520" viewBox="0 0 332 520" fill="none" xmlns="http://www.w3.org/2000/svg">
<path d="M297 2C297 6.76801 298.104 12.3981 294 15.7778C289.946 19.1161 289.365 24.9082 285.5 28C284.58 28.7364 284.965 30.9287 285.222 31.8889C286.716 37.465 294.466 40.9847 290.667 46C286.435 51.5863 284.705 58.2003 280.778 64.2222C277.847 68.7167 279 79.1214 279 84.4444C279 86.1045 279.14 87.8144 278.778 89.4444C278.08 92.5838 279.556 93.9883 279.556 96.4444C279.556 98.7634 276.311 101.619 275.444 103.722C273.608 108.183 273.461 112.847 271.778 117.222C269.179 123.978 257.028 127.483 251.556 131.556C248.695 133.684 250.035 138.883 251 141.778C253.339 148.794 239.908 156.335 237.833 163.389C236.228 168.847 254.886 163.878 245 172.889C238.303 178.992 230.653 183.996 223.778 189.889C222.83 190.701 222.061 192.115 221 192.778C217.856 194.743 222.086 201.312 222.444 203.944C222.678 205.656 222.393 206.885 220.556 207C217.729 207.177 216.078 209.583 213.611 210.944C208.795 213.602 214.588 213.76 213.778 217C213.374 218.617 211.621 218.981 211.222 220.444C209.425 227.034 202.854 228.919 201.722 236.389C201.464 238.091 202.09 239.464 202 241C201.804 244.329 198.926 246.01 196.778 248.444C192.755 253.003 191.166 257.029 189 262.444C184.941 272.592 170.665 278.846 162.556 285.222C156.875 289.689 155.727 290.801 157.556 297.333C158.591 301.03 159.069 298.647 158.111 302C156.338 308.204 141.03 305.115 148 314.333C149.343 316.11 148.161 317.603 146.444 320.056C144.952 322.187 145.628 323.384 145.111 325.222C144.235 328.338 135.044 332.177 136.444 335.444C136.917 336.547 130.964 337.229 131.222 339.556C131.622 343.156 131.061 349.226 130.778 353.333C130.313 360.076 123.249 359.88 122.056 366.444C121.366 370.235 120.829 370.549 116.667 374.333C109.978 380.414 106.03 383.114 105 391.556C104.325 397.093 97.119 400.883 95.2778 406.222C94.8617 407.429 96.2269 410.136 95.7778 410.778C94.8148 412.153 95.1928 413.15 94.9444 414.889C94.6805 416.737 91.5469 416.816 90.6111 418.5C89.8489 419.872 91.3301 424.011 90.5556 426.556C90.2423 427.585 86.527 429.663 86.1111 430C81.7045 433.575 77.2957 437.849 74.9444 443.111C74.1812 444.819 73 448.049 73 450C73 458.168 56.2916 461.64 65.7778 469.5C69.301 472.419 73.757 471.766 72.3333 476.778C71.061 481.256 69.7436 485.688 69.2222 490.333C69.0962 491.456 69.5578 494.738 68.7778 495.778C68.3094 496.402 61.3222 497.674 60 498.5C50.5622 504.399 40.9751 511.269 32 518" stroke="white" stroke-width="3" stroke-linecap="round"/>
<path d="M257 128C257.206 130.269 255.359 142.634 255.5 142.722C256.318 143.233 261.023 142.595 259.444 144.667C257.378 147.379 253.812 149.049 251.444 151.556C250.112 152.966 250.916 153.139 252 154.222C254.402 156.624 251.936 158.947 251.278 161.5C250.527 164.408 253 169.513 253 173C253 176.279 253.554 178.708 257 180C257.973 180.365 255.662 182.302 255.444 182.556C253.118 185.257 254.466 189.08 255.056 192.222C256.876 201.931 257.577 211.805 258 221.667C258.099 223.972 259.443 224.049 257.222 225.611C255.974 226.489 251.776 228.142 252.222 230.222C253.117 234.399 254 237.459 254 241.944C254 246.674 249.765 248.477 254.778 251.778C257.663 253.678 258.085 255.224 259 258.611C260.757 265.111 259.532 265.761 266.444 266.056C273.804 266.369 268.92 268.435 267.222 272C266.046 274.47 265.361 281.535 267.5 283.389C270.214 285.741 266 287.962 266 291C266 295.307 270 296.932 270 301" stroke="white" stroke-width="3" stroke-linecap="round"/>
<path d="M189 264C184.258 262.103 184.545 262.631 182.556 268.111C180.662 273.327 181.081 281.166 175.333 276.333C171.802 273.364 167.257 267 162.222 267C154.806 267 147.327 266.791 139.944 267.611C128.675 268.863 128.411 273.982 126.111 284.333C125.652 286.397 126.061 279.002 124.056 278.333C122.699 277.881 122.745 281.273 122 278.667C121.78 277.896 120.8 280.044 120 280C118.864 279.937 118.078 277.606 117 278.444C115.473 279.632 115.531 279.826 113.556 280C110.65 280.256 110.763 283.442 108.5 283.944C104.055 284.932 101.328 295.116 99.2222 289.556C98.8794 288.65 97.6657 281.236 95.7778 282.444C93.1341 284.136 93.4702 289.741 93 292.444C90.8969 304.537 88.7357 284.685 84.5 296.5C82.3129 302.601 83.2884 302.119 79.9444 298.167C76.8814 294.547 74.86 300.379 74 299.111C69.8455 292.989 72.052 299.202 67 300C61.0452 300.94 56.2581 299.502 50.1111 298.056C41.8864 296.12 34 295.361 34 306.5C34 313.706 28.0995 303.62 23.4444 308.778C20.7433 311.771 17.4703 314.167 14.6667 317.111C10.7583 321.215 12.596 317.035 9.55556 316.167C6.77399 315.372 6.56779 328.613 2 321" stroke="white" stroke-width="3" stroke-linecap="round"/>
<path d="M127 362C126.34 366.288 124.946 368.624 126 373C127.626 379.756 115.716 383.006 117.5 388C118.972 392.121 121.043 394.134 123.556 397.778C124.254 398.79 123.816 401.767 123.944 403.056C124.099 404.597 123.881 415.776 125 416C127.584 416.517 124.383 419.257 124.167 420.444C124.008 421.32 125.904 422.785 126 424.222C126.284 428.489 129.623 431.972 128 436.333C127.163 438.583 126 439.128 126 441.667C126 447.89 120.644 454.146 122.056 460.5C122.466 462.348 125.72 462.54 124.778 464.778C123.567 467.653 118.92 471.86 123 474.222C128.988 477.689 125.25 483.752 127 489" stroke="white" stroke-width="3" stroke-linecap="round"/>
<path d="M283 59C279.198 59 270.331 55.734 267.444 57.7222C260.695 62.3717 257.647 76.3662 254.389 83.3889C252.745 86.9315 250.606 95.0432 247.389 88.8889C242.702 79.9224 239.847 89.927 237.944 87.8889C235.76 85.5487 233.774 75.1068 229.944 80.6111C228.797 82.2601 227.868 84.305 226.5 85.7778C225.348 87.0185 222.826 86.6233 221.333 87.3889C216.811 89.708 215.325 94.3397 210.944 94.7778C206.876 95.1846 205.954 104.942 202.444 105.944C199.311 106.84 198.62 110.269 196.5 112.389C194.156 114.733 193.908 106.774 189.778 112.167C187.952 114.551 178.826 133.582 175.444 131.778C174.021 131.019 173.124 128.566 171.444 128.389C168.672 128.097 164.825 134.399 163.611 136C163.119 136.649 158.98 144.299 157.444 141.944C156.626 140.689 154.99 133.943 152.722 134.722C148.214 136.272 144.99 151.889 141.5 151.889C138.189 151.889 134.757 164.67 133 168.222C131.015 172.235 128.929 177.353 126.167 180.944C125.636 181.634 124.562 176.62 124.444 176.278C123.061 172.254 120.413 177.67 119.222 179.056C116.014 182.786 112.373 185.062 107.833 186.833C101.66 189.243 100.618 180.826 96.4444 185C93.788 187.656 90.9885 187.104 89.3333 190.778C83.8239 203.006 85.4303 185.414 81.7778 192.889C81.5131 193.431 79.554 199.571 78.2222 199C77.1104 198.523 76.5308 198.963 75.4444 199.778C73.6745 201.105 73.5929 201.546 71.5556 202.444C70.4106 202.95 69.2011 203.841 68 203C67.563 202.694 66.7595 201.638 66.2222 202.444C64.0589 205.689 64.8341 200.916 63.5556 201.556C59.0943 203.786 62.6975 206.104 59 200.667C58.4875 199.913 55.9756 205.031 55.4444 206C54.0115 208.613 55.0758 201.732 55 203.778C54.8913 206.714 54.7355 210.702 52 212.222C48.6696 214.072 49.3396 211.842 46 211.667C42.7758 211.497 40.1005 219.078 37.7778 221.222C36.2889 222.597 34.6983 221.603 34 223" stroke="white" stroke-width="3" stroke-linecap="round"/>
<path d="M182 272C185.633 272.214 186.34 275.788 185.333 278.889C183.897 283.313 182.127 287.531 181.667 292.222C181.576 293.142 182.607 296.056 182.111 296.889C180.309 299.917 167.38 307.38 168.222 310.222C168.66 311.701 169.966 312.75 170.778 314C172.299 316.34 172.308 319.213 173.222 321.778C175.339 327.716 180.275 332.181 184.889 336.222C187.561 338.563 190.518 340.035 191.444 343.556C192.422 347.269 198.615 346.92 195.556 351.556C194.615 352.981 187.704 357.225 191.556 358.778C195.076 360.197 199.018 359.559 202.667 360.222C206.115 360.849 199.525 364.704 198.667 365.444C193.308 370.064 196.895 370.123 202.056 371.944C203.408 372.422 200.362 375.683 200.111 376.5C199.163 379.583 201.385 381.089 201.833 383.556C202.242 385.803 199.416 387.065 199 388.833C197.962 393.245 195.174 399.118 200.611 401C202.696 401.722 221.354 404.824 214.278 407.611C206.686 410.602 207 412.99 207 420" stroke="white" stroke-width="3" stroke-linecap="round"/>
<path d="M142 152C134.491 149.17 127.171 145.737 119.167 144.611C110.065 143.331 107.096 148.948 105.444 157.444C103.651 166.67 106.641 149.697 102.444 147.389C98.0679 144.982 91.0085 158.299 89.7778 155.222C87.2897 149.002 77.2029 155.377 74.3333 158.333C70.6828 162.094 71.2453 163.111 67.0556 163.111C63.7847 163.111 61.5747 160.931 59 159" stroke="white" stroke-width="3" stroke-linecap="round"/>
<path d="M201 109C201 111.926 201 114.852 201 117.778C201 120.473 198.675 122.416 199.5 125.056C200.639 128.702 198.548 131.629 197.611 135C197.027 137.104 198.616 138.48 197.222 140.222C196.74 140.825 197.066 141.992 197 142.667C196.565 147.106 194.113 150.905 192.889 155.111C191.268 160.681 193.939 161.249 197.778 164C200.449 165.915 196.551 170.108 195.667 172.278C193.798 176.865 191.826 182.985 190.778 187.778C189.613 193.101 196.42 189.811 192 196" stroke="white" stroke-width="3" stroke-linecap="round"/>
<path d="M256 200C257.403 200.743 259.541 201.732 260.556 203C262.545 205.487 257.06 208.254 257.389 210.389C257.449 210.779 262.285 213.767 263.111 214.222C267.259 216.508 276.177 216.412 274 222.944C272.436 227.636 276.259 228.481 279.167 231.389C281.336 233.558 277.333 235.586 278.667 238C280.837 241.927 278.633 244.978 280.056 248.889C280.914 251.249 281.205 253.614 282 256" stroke="white" stroke-width="3" stroke-linecap="round"/>
<path d="M282 94C283.435 98.5428 288.672 98.7735 285.889 104.667C284.722 107.139 278.479 112.587 279.889 115.778C281.862 120.243 287.236 120.125 287.889 126.222C288.295 130.01 284.63 138.678 288.778 141.222C291.213 142.716 307.166 143.723 304.222 147.444C301.573 150.794 297.565 152.377 297.222 157.111C296.668 164.758 300.354 172.429 301.556 179.889C302.142 183.531 301.399 187.434 302.222 191C302.753 193.302 304.171 195.21 303.778 197.667C303.294 200.691 300.683 207.018 302.667 209.778C304.033 211.679 304.735 210.989 305 213.444C305.591 218.907 311.919 220.433 316 222.556C319.366 224.306 316.631 226.479 315.444 228.778C314.162 231.263 316.846 235.219 317.556 237.556C318.344 240.152 317.178 243.419 318.889 245.667C320.856 248.251 325.889 249.911 324 253.5C322.503 256.345 323.91 258.528 324.389 261.5C325.066 265.701 322.745 269.485 321.611 273.389C319.81 279.592 330.806 282.15 329.5 284.5C328.565 286.183 329 288.62 329 290.5C329 293.399 327.53 294.947 327.056 297.556C326.692 299.554 330.638 302.289 328.5 304C327.294 304.965 328 308.962 328 310.5C328 315.637 327.88 323.761 330 328" stroke="white" stroke-width="3" stroke-linecap="round"/>
</svg>
